PathFileType	4	(X/Y/Z)	/Users/visionmauri/Downloads/Videos/OAW01-top_Sports2D/OAW01-top_Sports2D_px_person00.trc
DataRate	CameraRate	NumFrames	NumMarkers	Units	OrigDataRate	OrigDataStartFrame	OrigNumFrames
26.0	26.0	13	22	m	26.0	1780	2035
Frame#	Time	Hip			RHip			RKnee			RAnkle			RBigToe			RSmallToe			RHeel			LHip			LKnee			LAnkle			LBigToe			LSmallToe			LHeel			Neck			Head			Nose			RShoulder			RElbow			RWrist			LShoulder			LElbow			LWrist			
		X1	Y1	Z1	X2	Y2	Z2	X3	Y3	Z3	X4	Y4	Z4	X5	Y5	Z5	X6	Y6	Z6	X7	Y7	Z7	X8	Y8	Z8	X9	Y9	Z9	X10	Y10	Z10	X11	Y11	Z11	X12	Y12	Z12	X13	Y13	Z13	X14	Y14	Z14	X15	Y15	Z15	X16	Y16	Z16	X17	Y17	Z17	X18	Y18	Z18	X19	Y19	Z19	X20	Y20	Z20	X21	Y21	Z21	X22	Y22	Z22
1780	68.49519703502006	509.71490048573264	531.9476498509079	0.0	493.02120873586165	534.3324717495981	0.0	495.98229267261235	603.901527473006	0.0	497.9805528920078	662.9169809537079	0.0	501.5778187221571	684.1108167323412	0.0	492.43811022286883	682.2849839806238	0.0	497.8478854335536	669.0824973680566	0.0	525.8596600690915	533.3756361277932	0.0	521.0789149719681	605.7911893959058	0.0	522.3963943459376	678.3794208823995	0.0	516.9595436889178	697.689629709633	0.0	528.248093756905	696.8145800887221	0.0	521.1121770220448	686.4957908798261	0.0	511.89574313554084	439.0768954974588	0.0	514.8430808218369	384.8776329968553	0.0	513.7315231417807	417.3803341172764	0.0	481.1022379847801	446.2035988208088	0.0	468.9039292085454	495.6156549305948	0.0	463.199231459323	536.3203412294987	0.0	544.4867244248966	448.80124839929425	0.0	550.3120188807649	498.25279072637676	0.0	551.7583564958819	540.799056502122	0.0
1781	68.53367748279254	510.49438713748015	532.8472970052587	0.0	493.6419990838633	535.305998301678	0.0	496.69566306488923	605.3716142514124	0.0	497.7532609760728	662.764026833246	0.0	502.22766509088734	684.8370403042272	0.0	492.5549634165162	683.0039583430575	0.0	497.2487537892188	669.048214415855	0.0	526.3235734048648	534.9088246818604	0.0	521.0443783409789	607.1759744407028	0.0	521.739446931942	679.7882290771051	0.0	516.432872339727	699.807789306915	0.0	527.7925194624	698.8781722136602	0.0	520.5768517003725	687.7495277790885	0.0	513.0207945540425	440.2448522458436	0.0	515.984133383846	384.6844048013789	0.0	515.1677776809146	417.5678944828777	0.0	482.1576725634796	446.69089313511324	0.0	470.20320952711603	495.9119668718593	0.0	463.69498030188026	536.8710455800328	0.0	545.8395322039543	449.86727290139936	0.0	551.677570039933	499.15740614963124	0.0	552.8122441234586	541.7825547709881	0.0
1782	68.57215793056501	511.3027222129483	533.9134279839852	0.0	494.13867045703984	536.244896421485	0.0	497.3926880889799	606.800705604263	0.0	497.4403455507142	662.1006510385406	0.0	502.5470369430634	685.5084602626672	0.0	492.5386291447562	683.1307391456601	0.0	496.72606485177636	667.9521816304073	0.0	527.0662034208226	536.2343469545165	0.0	521.6264027731127	608.4324347653115	0.0	520.987536234981	682.2612663348489	0.0	515.8044496599791	702.490527243881	0.0	527.0641481868877	701.5255640856757	0.0	520.2980891644065	690.1543031933367	0.0	514.0139929457943	440.6654083572017	0.0	517.3218967306752	386.6117541908041	0.0	516.0390837263634	418.1369120561097	0.0	482.8933717342651	446.6856347706666	0.0	471.2717598502048	496.62575108784694	0.0	464.3743751307537	537.4057842420387	0.0	546.79014069235	450.2266476883883	0.0	552.7889098796185	500.6024791833531	0.0	554.017396044918	543.3132071320169	0.0
1783	68.6106383783375	512.2372091631186	534.6737301461221	0.0	494.7305990901896	536.7007693240696	0.0	498.01697038518824	608.745984549768	0.0	497.42312552514926	661.570074309781	0.0	502.55904611785087	685.6473924506311	0.0	492.2820223559503	682.797755315105	0.0	496.6291171070237	666.0410869061577	0.0	528.4303393755042	536.5636585248038	0.0	522.5177361353881	609.7229296268508	0.0	520.7871753552453	684.7482259533386	0.0	515.2556443929094	704.3058769388521	0.0	526.440828445501	703.3645889060223	0.0	520.5298962104553	692.8350435971622	0.0	515.3488211554308	439.8224955073612	0.0	518.1528543399003	389.49873025305453	0.0	516.4209901227075	418.4398755041643	0.0	483.78457649478594	446.37186527659014	0.0	472.168611912475	497.7985098184919	0.0	465.4728564879039	538.353514027696	0.0	547.803358366718	449.78844598742313	0.0	553.7999784921285	501.9879155947943	0.0	555.632348045462	544.9233031385883	0.0
1784	68.64911882610998	513.1538508906948	535.059568664499	0.0	495.22444817784526	536.5101580273836	0.0	498.75322400989216	610.2350389313002	0.0	497.58032109442377	661.1485159706956	0.0	502.50471979984496	685.4975352787176	0.0	492.01851435972213	682.6425983189581	0.0	496.73708329083826	664.1208796941075	0.0	529.8829354687043	536.1618538295055	0.0	523.3417127893069	610.6996242492493	0.0	521.0362988473779	686.0769188855611	0.0	515.1213615508244	704.710466872104	0.0	526.1013895235176	703.8504058053059	0.0	520.7902990683624	694.0480231284818	0.0	516.6278267113823	439.10284821042325	0.0	518.9548947495355	391.0888428993458	0.0	517.1545855076862	418.8372940399996	0.0	484.8647993861292	446.0675729866583	0.0	472.9130625910079	498.8510226758479	0.0	466.6950588488599	539.7880102463163	0.0	548.8662449448418	449.4199475872973	0.0	555.0768587208985	503.07713415139176	0.0	557.3814882429454	546.2622197504226	0.0
1785	68.68759927388247	513.9645337225787	535.477447986865	0.0	495.5401419792741	536.1043503891264	0.0	499.5931460378455	610.3043685625094	0.0	497.42478351867396	660.376426264756	0.0	502.18995852381	685.9200937903961	0.0	491.55994440786145	683.154406255546	0.0	496.7206141327281	662.3921829190715	0.0	530.8101839577465	535.9221763325912	0.0	524.2197939857042	610.8958222641318	0.0	521.349031623089	686.310140880781	0.0	515.1393305761379	704.2294821747207	0.0	525.8662967019417	703.6007307685135	0.0	520.9482848523292	693.619279459004	0.0	517.1709329604505	439.1768959530982	0.0	519.9758374783796	389.9189226057233	0.0	518.0622537735154	419.1116995141058	0.0	485.53059277999716	446.0194127222029	0.0	473.44939780019143	499.5029500082452	0.0	467.60768565443146	541.4476977899623	0.0	549.8042760872329	449.749561118821	0.0	556.3423047766747	504.4491274905865	0.0	558.7818612857304	547.8448229772673	0.0
1786	68.72607972165495	514.9113395511857	535.8562983391824	0.0	496.21886465082315	535.780670707876	0.0	500.2336278787442	610.2399008428399	0.0	497.1733464611003	659.2531208082927	0.0	501.1740129194989	686.540933263701	0.0	490.58734801448946	683.3922359441684	0.0	496.63301702918267	660.7606023236676	0.0	531.52183811573	535.9861784585303	0.0	525.4206313713249	611.3320511535924	0.0	521.6260451798083	686.2038260092902	0.0	514.9135662155634	703.9673029413133	0.0	525.6865866463058	703.7238820769556	0.0	521.3427351050229	693.1946623416582	0.0	517.3592587494086	438.8335142890346	0.0	520.1576414232419	386.4404754445635	0.0	518.2924551919511	418.03251477527704	0.0	485.66349843106116	446.15227279172063	0.0	474.1515877221279	499.92362066360835	0.0	468.38007660838997	543.1786893694597	0.0	550.7238470662414	450.1847270069099	0.0	557.4240272050976	505.71407392927125	0.0	560.0922761163677	549.4090353040449	0.0
1787	68.76456016942744	515.9979745649892	536.1396060223748	0.0	497.36560752293144	535.5716892650577	0.0	500.4803993532047	611.2415068401863	0.0	497.3114488541379	658.5153792885201	0.0	499.58601511606025	686.7896619201654	0.0	489.53476609494834	682.7788460715179	0.0	496.88165370558266	659.9607881793046	0.0	532.4993783477483	535.9737865326181	0.0	526.8762030493615	612.9427252164323	0.0	521.8789174497906	686.1981216688008	0.0	514.645112566831	704.4597988502006	0.0	525.6479482333807	704.5178010248525	0.0	521.856989232989	693.6541156271779	0.0	518.0651599737114	437.81204345420963	0.0	519.3121911009117	382.8209972467947	0.0	518.1624318308959	416.3874562689004	0.0	485.85716142599847	446.0487921099038	0.0	475.2670579156266	500.1447024062131	0.0	469.43163081153733	544.6695461955763	0.0	551.6741448056533	450.1902043440308	0.0	558.5542323699399	505.9489162774638	0.0	561.6447647887073	550.2701674637259	0.0
1788	68.80304061719991	516.8431504585212	536.5591804249009	0.0	498.24130632194914	535.793601835312	0.0	500.64913070694985	612.4296667033233	0.0	497.7288081746485	659.6467327226165	0.0	498.2804848084807	687.8564767296122	0.0	489.045330216536	683.2510303405894	0.0	497.7568865582625	661.8888904693047	0.0	533.4221571564065	536.3270438856216	0.0	528.1070773098706	614.8578100091362	0.0	522.0507856314856	686.13369097984	0.0	514.5142142526562	705.0799794136051	0.0	525.6412531771539	705.1391207719159	0.0	522.1411751025576	694.1485880973077	0.0	519.1779431218275	437.06862657993616	0.0	518.8608891086545	381.0187727281143	0.0	518.4959084674641	415.7765504783034	0.0	486.44027281806245	445.5486805330974	0.0	476.2630644865298	500.2161980180802	0.0	470.5414302679525	545.5592360319655	0.0	552.4972458318396	449.9096936072825	0.0	559.7671433628996	505.2750700044719	0.0	563.0248172180466	550.4605016916504	0.0
1789	68.8415210649724	517.1805083587788	537.1470951935853	0.0	498.50685098903585	536.6460771610207	0.0	501.08446847711946	612.8933899429143	0.0	498.22220824682057	663.5328539417048	0.0	497.69695649825815	690.8354473826221	0.0	489.0009133698593	686.4390646095304	0.0	498.9593653348706	667.5704828886927	0.0	533.7103599952039	537.7077378808343	0.0	528.6849665508074	615.875613095446	0.0	522.1736334581202	685.6930724664558	0.0	514.4088261314204	705.3474729059403	0.0	525.5490931990317	705.0896253238366	0.0	522.159150366147	693.8431513733891	0.0	520.0639985600353	436.73484096316076	0.0	519.7324330573214	381.25648249095536	0.0	519.3045841462312	415.98289330598135	0.0	487.1777447988626	445.1140334914766	0.0	476.7095260379066	500.31309179485606	0.0	471.16341231331916	545.8972312344869	0.0	553.4049727342309	449.6031284105717	0.0	560.8504542647971	504.6160113318378	0.0	563.7319694450192	550.3168826327876	0.0
1790	68.88000151274488	517.0963233748676	537.5107113206225	0.0	498.6397867265059	537.4407103507093	0.0	501.51581126365846	613.0115171703478	0.0	498.8003755952977	669.3361632912093	0.0	497.5549346127281	695.2431337384478	0.0	489.04946073380785	691.4597065979992	0.0	499.87873642199867	675.2172017287377	0.0	533.5005072761447	539.1651509040339	0.0	528.8614834145558	615.9271803000398	0.0	522.346854145464	685.1904341979032	0.0	514.5246149949843	705.7123307973552	0.0	525.5259590964363	705.0347562346915	0.0	522.0532190355467	693.0445389777744	0.0	520.7038777296199	437.14818609174233	0.0	521.093136046531	382.1715464570943	0.0	520.0830959119	416.43400045503654	0.0	487.74526297671275	445.2422977221369	0.0	476.87553247305993	500.42181585149166	0.0	471.26936633583045	546.1322512690891	0.0	554.7008586049984	449.6954706156103	0.0	561.645142762866	504.5054728081639	0.0	563.9339649054905	549.8386758887546	0.0
1791	68.91848196051737	517.0304680491856	537.1150630016831	0.0	498.9468134407272	537.4128198305526	0.0	501.616694304421	613.4954908173645	0.0	499.4149777817647	675.8042666511409	0.0	498.11178217674274	700.656097652391	0.0	489.48682435590274	697.3576283242219	0.0	500.25505875355054	682.3796300778969	0.0	533.3968954904803	539.1869609804783	0.0	529.1097607534829	615.6037311081312	0.0	522.4856779270184	685.4557811524168	0.0	514.8724358546443	706.5671833692535	0.0	525.5894285212019	705.5871012814765	0.0	522.0247581733964	692.755330573718	0.0	521.2590763322381	439.2699996180575	0.0	522.0167502387037	382.1251214650972	0.0	520.498671761421	417.06277991899384	0.0	488.0800601203009	445.8316094153324	0.0	477.0730151020808	500.4513338400494	0.0	471.2229263954962	546.6748033251913	0.0	555.9719020595047	450.53347704848034	0.0	562.1403498455156	504.7238429275291	0.0	564.0512541958897	548.8974231242322	0.0
1792	68.95696240828985	517.3100287237494	536.4489413349111	0.0	499.1652556647656	537.1445011422073	0.0	501.6322533929212	614.6068453956651	0.0	500.06093137099623	682.2656878027165	0.0	499.97428761023855	706.9549872773524	0.0	491.0005629168432	704.0508208332598	0.0	500.3378159151608	689.0782302487847	0.0	533.55598992825	538.3229199617953	0.0	529.3054586567762	615.598105639092	0.0	522.3624082287918	686.366673706276	0.0	514.7465537022159	707.5291174999716	0.0	525.2627085577717	706.2716596311157	0.0	522.0757073655933	693.4911549487808	0.0	521.5507161586467	441.77520218425354	0.0	523.0327077316823	380.80118791550143	0.0	520.8364038960995	417.4590995234656	0.0	488.31705100484703	446.30704894669833	0.0	477.3831249185528	500.3154540020942	0.0	471.16276867212684	547.3431197990889	0.0	556.5306218854789	451.6976587151246	0.0	562.4107215188378	504.8143083699271	0.0	564.0230607709212	547.7945825152486	0.0
